<?xml version="1.0" encoding="UTF-8"?>
<svg id="Layer_1" data-name="Layer 1" xmlns="http://www.w3.org/2000/svg" xmlns:xlink="http://www.w3.org/1999/xlink" viewBox="0 0 198 54">
  <defs>
    <style>
      .cls-1, .cls-2 {
        fill: #fff;
      }

      .cls-3 {
        clip-path: url(#clippath-2);
      }

      .cls-4 {
        clip-path: url(#clippath-1);
      }

      .cls-5 {
        fill: #4d9fe1;
      }

      .cls-5, .cls-2 {
        stroke-width: 0px;
      }

      .cls-6 {
        clip-path: url(#clippath);
      }
    </style>
    <clipPath id="clippath">
      <path class="cls-2" d="M57.6223,25.8824c.863-.5178,1.657-1.1478,2.3647-1.8555,2.2783-2.2783,3.6851-5.4198,3.6851-8.8892,0-7.8017-6.3259-14.1364-14.1364-14.1364h-29.4292v51.9973h31.5005c3.944,0,7.5256-1.5966,10.1146-4.1857,2.5805-2.5891,4.1857-6.162,4.1857-10.1061,0-5.7046-3.4003-10.6239-8.2851-12.8246ZM32.6463,11.5648h13.0835c2.917,0,5.2817,2.3647,5.2817,5.2817,0,1.4327-.5782,2.7272-1.5189,3.6593-.9407.9407-2.2352,1.5189-3.6679,1.5189h-13.1784v-10.4599ZM51.5811,40.7437c-.9234.9234-2.1921,1.4931-3.6074,1.4931h-15.3274v-10.2787h15.2497c2.8653,0,5.1782,2.3129,5.1782,5.1782,0,1.4067-.5696,2.684-1.4931,3.6074Z"/>
    </clipPath>
    <clipPath id="clippath-1">
      <path class="cls-2" d="M65.8393,40.1006s7.1204,4.0291,12.536,1.6063,2.7078-7.1615-.3563-7.6782-12.8449-2.8459-14.7508-3.5251,2.5711,9.597,2.5711,9.597Z"/>
    </clipPath>
    <clipPath id="clippath-2">
      <path class="cls-2" d="M145.4715,52.7328V1.2672h-9.8338l-17.601,27.1307L99.3669,1.2672h-27.1897c.011.2602,20.7137-1.0984,22.8785,16.5131h-12.6485s-.8195-7.1615-10.4395-6.2352c0,0-5.6651.9121-5.1663,5.5154,0,0,.2763,3.1782,5.3757,3.962,0,0,9.1255,1.639,15.2182,3.9905,6.0927,2.3515,7.5178,9.3349,7.5178,9.3349,0,0,1.3539,8.3017-4.0261,12.791s-7.0903,4.4537-14.3943,5.5938h26.1877v-25.467l11.4727,17.3079,7.0546.1069,11.5083-17.4228-.0356,25.4751h12.791Z"/>
    </clipPath>
  </defs>
  <g>
    <g>
      <path class="cls-1" d="M57.6223,25.8824c.863-.5178,1.657-1.1478,2.3647-1.8555,2.2783-2.2783,3.6851-5.4198,3.6851-8.8892,0-7.8017-6.3259-14.1364-14.1364-14.1364h-29.4292v51.9973h31.5005c3.944,0,7.5256-1.5966,10.1146-4.1857,2.5805-2.5891,4.1857-6.162,4.1857-10.1061,0-5.7046-3.4003-10.6239-8.2851-12.8246ZM32.6463,11.5648h13.0835c2.917,0,5.2817,2.3647,5.2817,5.2817,0,1.4327-.5782,2.7272-1.5189,3.6593-.9407.9407-2.2352,1.5189-3.6679,1.5189h-13.1784v-10.4599ZM51.5811,40.7437c-.9234.9234-2.1921,1.4931-3.6074,1.4931h-15.3274v-10.2787h15.2497c2.8653,0,5.1782,2.3129,5.1782,5.1782,0,1.4067-.5696,2.684-1.4931,3.6074Z"/>
      <g class="cls-6">
        <rect class="cls-2" x="18.5936" y=".1448" width="129.2164" height="53.7104"/>
      </g>
    </g>
    <g>
      <path class="cls-1" d="M65.8393,40.1006s7.1204,4.0291,12.536,1.6063,2.7078-7.1615-.3563-7.6782-12.8449-2.8459-14.7508-3.5251,2.5711,9.597,2.5711,9.597Z"/>
      <g class="cls-4">
        <rect class="cls-2" x="18.5936" y=".1448" width="129.2164" height="53.7104"/>
      </g>
    </g>
    <g>
      <path class="cls-1" d="M145.4715,52.7328V1.2672h-9.8338l-17.601,27.1307L99.3669,1.2672h-27.1897c.011.2602,20.7137-1.0984,22.8785,16.5131h-12.6485s-.8195-7.1615-10.4395-6.2352c0,0-5.6651.9121-5.1663,5.5154,0,0,.2763,3.1782,5.3757,3.962,0,0,9.1255,1.639,15.2182,3.9905,6.0927,2.3515,7.5178,9.3349,7.5178,9.3349,0,0,1.3539,8.3017-4.0261,12.791s-7.0903,4.4537-14.3943,5.5938h26.1877v-25.467l11.4727,17.3079,7.0546.1069,11.5083-17.4228-.0356,25.4751h12.791Z"/>
      <g class="cls-3">
        <rect class="cls-2" x="17.7306" y=".1513" width="129.2164" height="53.7104"/>
      </g>
    </g>
  </g>
  <path class="cls-5" d="M153.8291,52.7329v-12.8164h12.8174v12.8164h-12.8174Z"/>
</svg>