<?xml version="1.0" encoding="utf-8"?>
<!-- Generator: Adobe Illustrator 28.2.0, SVG Export Plug-In . SVG Version: 6.00 Build 0)  -->
<svg version="1.1" id="Layer_1" xmlns="http://www.w3.org/2000/svg" xmlns:xlink="http://www.w3.org/1999/xlink" x="0px" y="0px"
	 viewBox="0 0 198 54" style="enable-background:new 0 0 198 54;" xml:space="preserve">
<style type="text/css">
	.st0{fill:#4D9FE1;}
	.st1{clip-path:url(#SVGID_00000065051260930226624250000000856564082645073036_);}
	.st2{clip-path:url(#SVGID_00000016776443610187477640000007442572590736685969_);}
	.st3{clip-path:url(#SVGID_00000103228178748638444730000014215841254408515769_);}
</style>
<g>
	<g>
		<path class="st0" d="M57.6,25.9c0.9-0.5,1.7-1.1,2.4-1.9c2.3-2.3,3.7-5.4,3.7-8.9C63.7,7.3,57.4,1,49.6,1H20.2v52h31.5
			c3.9,0,7.5-1.6,10.1-4.2c2.6-2.6,4.2-6.2,4.2-10.1c0-5.7-3.4-10.6-8.3-12.8L57.6,25.9z M32.6,11.6h13.1c2.9,0,5.3,2.4,5.3,5.3
			s-0.6,2.7-1.5,3.7c-0.9,0.9-2.2,1.5-3.7,1.5H32.6C32.6,22.1,32.6,11.6,32.6,11.6z M51.6,40.7c-0.9,0.9-2.2,1.5-3.6,1.5H32.7V31.9
			h15.2c2.9,0,5.2,2.3,5.2,5.2S52.5,39.8,51.6,40.7z"/>
		<g>
			<defs>
				<path id="SVGID_1_" d="M57.6,25.9c0.9-0.5,1.7-1.1,2.4-1.9c2.3-2.3,3.7-5.4,3.7-8.9C63.7,7.3,57.4,1,49.6,1H20.2v52h31.5
					c3.9,0,7.5-1.6,10.1-4.2c2.6-2.6,4.2-6.2,4.2-10.1c0-5.7-3.4-10.6-8.3-12.8L57.6,25.9z M32.6,11.6h13.1c2.9,0,5.3,2.4,5.3,5.3
					s-0.6,2.7-1.5,3.7c-0.9,0.9-2.2,1.5-3.7,1.5H32.6C32.6,22.1,32.6,11.6,32.6,11.6z M51.6,40.7c-0.9,0.9-2.2,1.5-3.6,1.5H32.7
					V31.9h15.2c2.9,0,5.2,2.3,5.2,5.2S52.5,39.8,51.6,40.7z"/>
			</defs>
			<use xlink:href="#SVGID_1_"  style="overflow:visible;fill:#4D9FE1;"/>
			<clipPath id="SVGID_00000032631569645423430800000014408703482898805666_">
				<use xlink:href="#SVGID_1_"  style="overflow:visible;"/>
			</clipPath>
			<g style="clip-path:url(#SVGID_00000032631569645423430800000014408703482898805666_);">
				<rect x="18.6" y="0.1" class="st0" width="129.2" height="53.7"/>
			</g>
		</g>
	</g>
	<g>
		<path class="st0" d="M65.8,40.1c0,0,7.1,4,12.5,1.6s2.7-7.2-0.4-7.7s-12.8-2.8-14.8-3.5s2.6,9.6,2.6,9.6H65.8z"/>
		<g>
			<defs>
				<path id="SVGID_00000033357051224911222150000006004543690814163886_" d="M65.8,40.1c0,0,7.1,4,12.5,1.6s2.7-7.2-0.4-7.7
					s-12.8-2.8-14.8-3.5s2.6,9.6,2.6,9.6H65.8z"/>
			</defs>
			<use xlink:href="#SVGID_00000033357051224911222150000006004543690814163886_"  style="overflow:visible;fill:#4D9FE1;"/>
			<clipPath id="SVGID_00000178887276703781206640000005408664211214670256_">
				<use xlink:href="#SVGID_00000033357051224911222150000006004543690814163886_"  style="overflow:visible;"/>
			</clipPath>
			<g style="clip-path:url(#SVGID_00000178887276703781206640000005408664211214670256_);">
				<rect x="18.6" y="0.1" class="st0" width="129.2" height="53.7"/>
			</g>
		</g>
	</g>
	<g>
		<path class="st0" d="M145.5,52.7V1.3h-9.8l-17.6,27.1L99.4,1.3H72.2c0,0.3,20.7-1.1,22.9,16.5H82.5c0,0-0.8-7.2-10.4-6.2
			c0,0-5.7,0.9-5.2,5.5c0,0,0.3,3.2,5.4,4c0,0,9.1,1.6,15.2,4s7.5,9.3,7.5,9.3s1.4,8.3-4,12.8s-7.1,4.5-14.4,5.6h26.2V27.3
			l11.5,17.3h7.1c0,0.1,11.5-17.3,11.5-17.3v25.5h12.8L145.5,52.7z"/>
		<g>
			<defs>
				<path id="SVGID_00000021825522104601855310000010612943622835378585_" d="M145.5,52.7V1.3h-9.8l-17.6,27.1L99.4,1.3H72.2
					c0,0.3,20.7-1.1,22.9,16.5H82.5c0,0-0.8-7.2-10.4-6.2c0,0-5.7,0.9-5.2,5.5c0,0,0.3,3.2,5.4,4c0,0,9.1,1.6,15.2,4
					s7.5,9.3,7.5,9.3s1.4,8.3-4,12.8s-7.1,4.5-14.4,5.6h26.2V27.3l11.5,17.3h7.1c0,0.1,11.5-17.3,11.5-17.3v25.5h12.8L145.5,52.7z"
					/>
			</defs>
			<use xlink:href="#SVGID_00000021825522104601855310000010612943622835378585_"  style="overflow:visible;fill:#4D9FE1;"/>
			<clipPath id="SVGID_00000160171927752399021150000006232629169307267730_">
				<use xlink:href="#SVGID_00000021825522104601855310000010612943622835378585_"  style="overflow:visible;"/>
			</clipPath>
			<g style="clip-path:url(#SVGID_00000160171927752399021150000006232629169307267730_);">
				<rect x="17.7" y="0.2" class="st0" width="129.2" height="53.7"/>
			</g>
		</g>
	</g>
</g>
<rect x="153.849" y="39.882" class="st0" width="12.818" height="12.818"/>
</svg>
