<?xml version="1.0" encoding="UTF-8"?>
<svg id="Layer_1" data-name="Layer 1" xmlns="http://www.w3.org/2000/svg" xmlns:xlink="http://www.w3.org/1999/xlink" viewBox="0 0 198 54">
  <defs>
    <style>
      .cls-1 {
        clip-path: url(#clippath-2);
      }

      .cls-2 {
        stroke-width: 0px;
      }

      .cls-2, .cls-3, .cls-4 {
        fill: #1f2a2e;
      }

      .cls-5 {
        clip-path: url(#clippath-1);
      }

      .cls-6 {
        clip-path: url(#clippath);
      }

      .cls-4 {
        font-family: Manrope-Medium, Manrope;
        font-size: 130.8px;
        font-weight: 500;
      }
    </style>
    <clipPath id="clippath">
      <path class="cls-2" d="M57.6,25.9c.9-.5,1.7-1.1,2.4-1.9,2.3-2.3,3.7-5.4,3.7-8.9,0-7.8-6.3-14.1-14.1-14.1h-29.4v52h31.5c3.9,0,7.5-1.6,10.1-4.2,2.6-2.6,4.2-6.2,4.2-10.1,0-5.7-3.4-10.6-8.3-12.8ZM32.6,11.6h13.1c2.9,0,5.3,2.4,5.3,5.3s-.6,2.7-1.5,3.7c-.9.9-2.2,1.5-3.7,1.5h-13.2v-10.5ZM51.6,40.7c-.9.9-2.2,1.5-3.6,1.5h-15.3v-10.3h15.2c2.9,0,5.2,2.3,5.2,5.2s-.6,2.7-1.5,3.6Z"/>
    </clipPath>
    <clipPath id="clippath-1">
      <path class="cls-2" d="M65.8,40.1s7.1,4,12.5,1.6,2.7-7.2-.4-7.7-12.8-2.8-14.8-3.5,2.6,9.6,2.6,9.6Z"/>
    </clipPath>
    <clipPath id="clippath-2">
      <path class="cls-2" d="M145.5,52.7V1.3h-9.8l-17.6,27.1L99.4,1.3h-27.2c0,.3,20.7-1.1,22.9,16.5h-12.6s-.8-7.2-10.4-6.2c0,0-5.7.9-5.2,5.5,0,0,.3,3.2,5.4,4,0,0,9.1,1.6,15.2,4,6.1,2.4,7.5,9.3,7.5,9.3,0,0,1.4,8.3-4,12.8s-7.1,4.5-14.4,5.6h26.2v-25.5l11.5,17.3h7.1c0,.1,11.5-17.3,11.5-17.3v25.5s12.8,0,12.8,0Z"/>
    </clipPath>
  </defs>
  <g>
    <g>
      <path class="cls-3" d="M57.6,25.9c.9-.5,1.7-1.1,2.4-1.9,2.3-2.3,3.7-5.4,3.7-8.9,0-7.8-6.3-14.1-14.1-14.1h-29.4v52h31.5c3.9,0,7.5-1.6,10.1-4.2,2.6-2.6,4.2-6.2,4.2-10.1,0-5.7-3.4-10.6-8.3-12.8ZM32.6,11.6h13.1c2.9,0,5.3,2.4,5.3,5.3s-.6,2.7-1.5,3.7c-.9.9-2.2,1.5-3.7,1.5h-13.2v-10.5ZM51.6,40.7c-.9.9-2.2,1.5-3.6,1.5h-15.3v-10.3h15.2c2.9,0,5.2,2.3,5.2,5.2s-.6,2.7-1.5,3.6Z"/>
      <g class="cls-6">
        <rect class="cls-2" x="18.6" y=".1" width="129.2" height="53.7"/>
      </g>
    </g>
    <g>
      <path class="cls-3" d="M65.8,40.1s7.1,4,12.5,1.6,2.7-7.2-.4-7.7-12.8-2.8-14.8-3.5,2.6,9.6,2.6,9.6Z"/>
      <g class="cls-5">
        <rect class="cls-2" x="18.6" y=".1" width="129.2" height="53.7"/>
      </g>
    </g>
    <g>
      <path class="cls-3" d="M145.5,52.7V1.3h-9.8l-17.6,27.1L99.4,1.3h-27.2c0,.3,20.7-1.1,22.9,16.5h-12.6s-.8-7.2-10.4-6.2c0,0-5.7.9-5.2,5.5,0,0,.3,3.2,5.4,4,0,0,9.1,1.6,15.2,4,6.1,2.4,7.5,9.3,7.5,9.3,0,0,1.4,8.3-4,12.8s-7.1,4.5-14.4,5.6h26.2v-25.5l11.5,17.3h7.1c0,.1,11.5-17.3,11.5-17.3v25.5s12.8,0,12.8,0Z"/>
      <g class="cls-1">
        <rect class="cls-2" x="17.7" y=".2" width="129.2" height="53.7"/>
      </g>
    </g>
  </g>
  <text class="cls-4" transform="translate(142.6 52.7)"><tspan x="0" y="0">.</tspan></text>
</svg>