<?xml version="1.0" encoding="UTF-8"?>
<svg id="Layer_1" data-name="Layer 1" xmlns="http://www.w3.org/2000/svg" viewBox="0 0 32 32">
  <defs>
    <style>
      .cls-1 {
        fill: #4d9fe1;
      }

      .cls-1, .cls-2 {
        stroke-width: 0px;
      }

      .cls-2 {
        fill: #3f7dbe;
      }
    </style>
  </defs>
  <rect class="cls-1" x="17.329" y="15.141" width="4.59" height="1.949"/>
  <rect class="cls-1" x="14.613" y="21.577" width="4.59" height="1.949" transform="translate(20.899 -5.351) rotate(45)"/>
  <rect class="cls-1" x="14.628" y="8.462" width="4.59" height="1.949" transform="translate(-1.716 14.731) rotate(-45)"/>
  <g>
    <path class="cls-2" d="M10.36,12.512c-1.926,0-3.488,1.562-3.488,3.488s1.562,3.488,3.488,3.488,3.488-1.562,3.488-3.488-1.562-3.488-3.488-3.488ZM10.36,17.479c-.816,0-1.479-.663-1.479-1.479s.663-1.479,1.479-1.479,1.479.663,1.479,1.479-.663,1.479-1.479,1.479Z"/>
    <path class="cls-2" d="M10.35,8.929c-3.905,0-7.071,3.166-7.071,7.071s3.166,7.071,7.071,7.071,7.071-3.166,7.071-7.071-3.166-7.071-7.071-7.071ZM10.35,20.959c-2.735,0-4.959-2.225-4.959-4.959s2.224-4.959,4.959-4.959,4.959,2.225,4.959,4.959-2.225,4.959-4.959,4.959Z"/>
    <path class="cls-2" d="M10.35,8.929c-3.905,0-7.071,3.166-7.071,7.071s3.166,7.071,7.071,7.071,7.071-3.166,7.071-7.071-3.166-7.071-7.071-7.071ZM10.35,20.959c-2.735,0-4.959-2.225-4.959-4.959s2.224-4.959,4.959-4.959,4.959,2.225,4.959,4.959-2.225,4.959-4.959,4.959Z"/>
  </g>
  <g>
    <path class="cls-2" d="M10.36,12.512c-1.926,0-3.488,1.562-3.488,3.488s1.562,3.488,3.488,3.488,3.488-1.562,3.488-3.488-1.562-3.488-3.488-3.488ZM10.36,17.479c-.816,0-1.479-.663-1.479-1.479s.663-1.479,1.479-1.479,1.479.663,1.479,1.479-.663,1.479-1.479,1.479Z"/>
    <path class="cls-2" d="M10.36,12.512c-1.926,0-3.488,1.562-3.488,3.488s1.562,3.488,3.488,3.488,3.488-1.562,3.488-3.488-1.562-3.488-3.488-3.488ZM10.36,17.479c-.816,0-1.479-.663-1.479-1.479s.663-1.479,1.479-1.479,1.479.663,1.479,1.479-.663,1.479-1.479,1.479Z"/>
  </g>
  <g>
    <path class="cls-1" d="M20.908,1.954c-1.926,0-3.488,1.562-3.488,3.488s1.562,3.488,3.488,3.488,3.488-1.562,3.488-3.488-1.562-3.488-3.488-3.488ZM20.908,6.921c-.816,0-1.479-.663-1.479-1.479s.663-1.479,1.479-1.479,1.479.663,1.479,1.479-.664,1.479-1.479,1.479Z"/>
    <path class="cls-1" d="M20.908,1.954c-1.926,0-3.488,1.562-3.488,3.488s1.562,3.488,3.488,3.488,3.488-1.562,3.488-3.488-1.562-3.488-3.488-3.488ZM20.908,6.921c-.816,0-1.479-.663-1.479-1.479s.663-1.479,1.479-1.479,1.479.663,1.479,1.479-.664,1.479-1.479,1.479Z"/>
  </g>
  <g>
    <path class="cls-1" d="M25.233,12.512c-1.926,0-3.488,1.562-3.488,3.488s1.562,3.488,3.488,3.488,3.488-1.562,3.488-3.488-1.562-3.488-3.488-3.488ZM25.233,17.479c-.816,0-1.479-.663-1.479-1.479s.663-1.479,1.479-1.479,1.479.663,1.479,1.479-.663,1.479-1.479,1.479Z"/>
    <path class="cls-1" d="M25.233,12.512c-1.926,0-3.488,1.562-3.488,3.488s1.562,3.488,3.488,3.488,3.488-1.562,3.488-3.488-1.562-3.488-3.488-3.488ZM25.233,17.479c-.816,0-1.479-.663-1.479-1.479s.663-1.479,1.479-1.479,1.479.663,1.479,1.479-.663,1.479-1.479,1.479Z"/>
  </g>
  <g>
    <path class="cls-1" d="M20.885,23.071c-1.926,0-3.488,1.562-3.488,3.488s1.562,3.488,3.488,3.488,3.488-1.562,3.488-3.488-1.562-3.488-3.488-3.488ZM20.885,28.037c-.816,0-1.479-.663-1.479-1.479s.663-1.479,1.479-1.479,1.479.663,1.479,1.479-.664,1.479-1.479,1.479Z"/>
    <path class="cls-1" d="M20.885,23.071c-1.926,0-3.488,1.562-3.488,3.488s1.562,3.488,3.488,3.488,3.488-1.562,3.488-3.488-1.562-3.488-3.488-3.488ZM20.885,28.037c-.816,0-1.479-.663-1.479-1.479s.663-1.479,1.479-1.479,1.479.663,1.479,1.479-.664,1.479-1.479,1.479Z"/>
  </g>
</svg>